<?xml version="1.0" encoding="UTF-8"?>
<svg width="100px" height="100px" viewBox="0 0 100 100" version="1.1" xmlns="http://www.w3.org/2000/svg" xmlns:xlink="http://www.w3.org/1999/xlink">
    <!-- Generator: Sketch 47.1 (45422) - http://www.bohemiancoding.com/sketch -->
    <title>100x100</title>
    <desc>Created with Sketch.</desc>
    <defs>
        <linearGradient x1="90.9921455%" y1="20.1985138%" x2="9.63091722%" y2="83.453185%" id="linearGradient-1">
            <stop stop-color="#ED4A6B" offset="0%"></stop>
            <stop stop-color="#F2854C" offset="100%"></stop>
        </linearGradient>
        <linearGradient x1="50%" y1="0%" x2="50%" y2="100%" id="linearGradient-2">
            <stop stop-color="#FABB83" offset="0%"></stop>
            <stop stop-color="#F2854C" offset="100%"></stop>
        </linearGradient>
    </defs>
    <g id="Logo-Sizes" stroke="none" stroke-width="1" fill="none" fill-rule="evenodd">
        <g id="100x100">
            <g id="Logo" transform="translate(4.000000, 0.000000)">
                <g id="Group" transform="translate(-22.868852, -0.655022)">
                    <path d="M80.7047461,45.1342583 C80.7047461,45.1342583 79.6894815,82.965613 76.3389251,88.6797736 C72.0485346,95.9887933 44.5833,80.9658952 46.0773109,75.4080948 C46.872364,72.4392123 80.7047461,45.1342583 80.7047461,45.1342583 Z M83.5991555,47.1683714 C83.5991555,47.1683714 106.920088,73.6003971 108.373843,78.3754642 C109.485405,82.4903186 104.318815,85.5457127 98.0919941,88.0028738 C92.2000633,90.3310159 84.6052928,92.0481858 82.9126426,88.9431633 C80.8660177,85.6494883 83.5991555,47.1683714 83.5991555,47.1683714 Z M78.6915403,42.6707273 C78.6915403,42.6707273 43.507263,72.2064558 41.1747863,69.945847 C37.9986061,68.2739262 34.4728513,60.0743955 33.0636266,52.8384985 C31.721067,45.9422956 31.535921,40.8764461 34.6850542,38.9816981 C37.8333039,37.089985 78.6915403,42.6707273 78.6915403,42.6707273 Z M51.4696394,8.72949362 C52.1516041,9.08983884 76.8805796,38.8490649 76.8805796,38.8490649 C76.8805796,38.8490649 37.9099855,35.6054111 36.2221493,32.9160268 C34.5350956,30.2248415 36.8294265,23.6092993 39.6419176,18.4504502 C42.4538453,13.2909297 48.0263395,9.37942543 49.416326,8.7726372 C50.8069854,8.16528427 51.4696394,8.72949362 51.4696394,8.72949362 Z" id="Combined-Shape" fill="url(#linearGradient-1)" fill-rule="nonzero"></path>
                    <path d="M58.3105128,90.7091934 C27.3636332,90.7091934 2.18695679,65.496023 2.18695679,34.5042856 C2.18695679,33.0499836 3.36467453,32.7478822 4.81774847,32.7478822 C6.27082241,32.7478822 7.44854016,33.0499836 7.44854016,34.5042856 C7.44854016,62.5891755 30.2653965,85.4399833 58.3105128,85.4399833 C86.3547522,85.4399833 109.172485,62.5891755 109.172485,34.5042856 C109.172485,33.0499836 110.350203,32.7478822 111.803277,32.7478822 C113.256351,32.7478822 114.434069,33.0499836 114.434069,34.5042856 C114.434069,65.496023 89.2573923,90.7091934 58.3105128,90.7091934 Z" id="Shape" fill="url(#linearGradient-2)" fill-rule="nonzero" transform="translate(58.310513, 61.728538) rotate(50.000000) translate(-58.310513, -61.728538) "></path>
                </g>
            </g>
        </g>
    </g>
</svg>